# xmcd CD database file
#
# Track frame offsets:
#	150
#	14250
#	26212
#	38795
#	53020
#	64047
#	78361
#	99064
#	111215
#	123526
#	142632
#	157182
#	171259
#	186736
#	201894
#	215491
#	229066
#	245021
#	257761
#	271006
#	286681
#	302184
#	318594
#	334116
#	345634
#
# Disc length: 4774 seconds
#
# Revision: 0
# Processed by: cddbd v1.5.2PL0 Copyright (c) Steve Scherf et al.
# Submitted via: CDex 1.51
#
DISCID=6a12a419
DTITLE=Charlie Parker - The Bebop Revolution 1948 - 1950
DYEAR=1950
DGENRE=Jazz
TTITLE0=Parker's Mood
TTITLE1=Perhaps
TTITLE2=Marmaduke
TTITLE3=Steeplechase
TTITLE4=Merry-Go-Round
TTITLE5=Overtime (short version)
TTITLE6=Overtime (long version)
TTITLE7=Victory Ball (short version 1)
TTITLE8=Victory Ball (short version 2)
TTITLE9=Victory Ball (long version)
TTITLE10=Cardboard
TTITLE11=Visa
TTITLE12=Segment
TTITLE13=Diverse
TTITLE14=Passport (Tune Y)
TTITLE15=Passport (Tune Z)
TTITLE16=Star Eyes
TTITLE17=Blues (fast)
TTITLE18=I'm In The Mood For Love
TTITLE19=Bloomdido
TTITLE20=An Oscar For Treadwell
TTITLE21=Mohawk
TTITLE22=Mu Melancholy Baby
TTITLE23=Leap Frog
TTITLE24=Relaxing With Lee
EXTD=YEAR: 1950
EXTT0=
EXTT1=
EXTT2=
EXTT3=
EXTT4=
EXTT5=
EXTT6=
EXTT7=
EXTT8=
EXTT9=
EXTT10=
EXTT11=
EXTT12=
EXTT13=
EXTT14=
EXTT15=
EXTT16=
EXTT17=
EXTT18=
EXTT19=
EXTT20=
EXTT21=
EXTT22=
EXTT23=
EXTT24=
PLAYORDER=
